HIERARCHY
ROOT Hips
{
	OFFSET 0.000000 0.000000 0.000000
	CHANNELS 6 Xposition Yposition Zposition Zrotation Yrotation Xrotation 
	JOINT LowerBack
	{
		OFFSET 0.000000 0.000000 0.000000
		CHANNELS 3 Zrotation Yrotation Xrotation
		JOINT Spine
		{
			OFFSET 0.028270 2.035590 -0.193380
			CHANNELS 3 Zrotation Yrotation Xrotation
			JOINT Spine1
			{
				OFFSET 0.056720 2.048850 -0.042750
				CHANNELS 3 Zrotation Yrotation Xrotation
				JOINT Neck
				{
					OFFSET 0.000000 0.000000 0.000000
					CHANNELS 3 Zrotation Yrotation Xrotation
					JOINT Neck1
					{
						OFFSET -0.054170 1.746240 0.172020
						CHANNELS 3 Zrotation Yrotation Xrotation
						JOINT Head
						{
							OFFSET 0.104070 1.761360 -0.123970
							CHANNELS 3 Zrotation Yrotation Xrotation
							End Site
							{
								OFFSET 0.000000 0.000000 0.000000
							}
						}
					}
				}
				JOINT LeftShoulder
				{
					OFFSET 0.000000 0.000000 0.000000
					CHANNELS 3 Zrotation Yrotation Xrotation
					JOINT LeftArm
					{
						OFFSET 3.362410 1.200890 -0.311210
						CHANNELS 3 Zrotation Yrotation Xrotation
						JOINT LeftForeArm
						{
							OFFSET 4.983000 -0.000000 -0.000000
							CHANNELS 3 Zrotation Yrotation Xrotation
							JOINT LeftHand
							{
								OFFSET 3.483560 -0.000000 -0.000000
								CHANNELS 3 Zrotation Yrotation Xrotation
								JOINT LeftFingerBase
								{
									OFFSET 0.000000 0.000000 0.000000
									CHANNELS 3 Zrotation Yrotation Xrotation
									JOINT LeftHandIndex1
									{
										OFFSET 0.715260 -0.000000 -0.000000
										CHANNELS 3 Zrotation Yrotation Xrotation
										End Site
										{
											OFFSET 0.000000 0.000000 0.000000
										}
									}
								}
								JOINT LThumb
								{
									OFFSET 0.000000 0.000000 0.000000
									CHANNELS 3 Zrotation Yrotation Xrotation
									End Site
									{
										OFFSET 0.000000 0.000000 0.000000
									}
								}
							}
						}
					}
				}
				JOINT RightShoulder
				{
					OFFSET 0.000000 0.000000 0.000000
					CHANNELS 3 Zrotation Yrotation Xrotation
					JOINT RightArm
					{
						OFFSET -3.136600 1.374050 -0.404650
						CHANNELS 3 Zrotation Yrotation Xrotation
						JOINT RightForeArm
						{
							OFFSET -5.241900 -0.000000 -0.000000
							CHANNELS 3 Zrotation Yrotation Xrotation
							JOINT RightHand
							{
								OFFSET -3.444170 -0.000000 -0.000000
								CHANNELS 3 Zrotation Yrotation Xrotation
								JOINT RightFingerBase
								{
									OFFSET 0.000000 0.000000 0.000000
									CHANNELS 3 Zrotation Yrotation Xrotation
									JOINT RightHandIndex1
									{
										OFFSET -0.622530 -0.000000 -0.000000
										CHANNELS 3 Zrotation Yrotation Xrotation
										End Site
										{
											OFFSET 0.000000 0.000000 0.000000
										}
									}
								}
								JOINT RThumb
								{
									OFFSET 0.000000 0.000000 0.000000
									CHANNELS 3 Zrotation Yrotation Xrotation
									End Site
									{
										OFFSET 0.000000 0.000000 0.000000
									}
								}
							}
						}
					}
				}
			}
		}
	}
}
}
MOTION
Frames: 14
Frame Time: 0.008333
23.860362 16.259181 3.567916 152.718063 -83.956821 -121.195509 11.555112 -2.796027 1.447718 1.782501 -3.254613 -2.319747 -5.755862 -3.358947 2.170431 9.612090 -4.730627 2.261432 -4.040686 -0.358905 2.292189 0.000000 0.000000 0.000000 -10.386284 -4.845458 0.257928 -74.607359 -18.610418 25.344480 -2.567128 -31.627952 -0.009513 4.992911 -1.303460 -0.064133 -0.106175 0.154662 0.000000 0.000000 0.000000 0.000000 0.000000 0.000000 0.000000 16.877083 -9.680518 -0.618169 62.521335 -12.794522 -14.024232 3.848510 16.827697 0.008477 2.659642 5.060893 0.113676 0.092217 -0.004124 -0.000000 0.000000 0.000000 0.000000 0.000000 0.000000 0.000000 
23.702155 16.247371 3.524822 158.032098 -84.095497 -126.092777 12.213247 -2.660820 1.553969 1.895200 -3.134984 -2.315461 -5.827681 -3.246237 2.106722 9.865451 -4.150461 2.455696 -4.071436 -0.360551 2.340164 0.000000 0.000000 0.000000 -10.575155 -5.091245 0.285692 -75.060697 -18.615508 24.832249 -2.500998 -30.785443 -0.010298 5.189320 -1.333267 -0.068079 -0.101352 0.155856 0.000000 0.000000 0.000000 0.000000 0.000000 0.000000 0.000000 17.242989 -9.170614 -0.583834 61.938651 -11.765503 -13.903582 3.868326 16.044225 0.007971 2.727132 4.887495 0.112663 0.090971 -0.002026 -0.000000 0.000000 0.000000 0.000000 0.000000 0.000000 0.000000 
23.553012 16.244954 3.481244 164.812672 -84.284721 -132.499675 12.945226 -2.538108 1.760534 2.022718 -3.019445 -2.283998 -5.915629 -3.137731 2.044132 10.197425 -3.488604 2.694353 -4.102732 -0.362136 2.398014 0.000000 0.000000 0.000000 -10.629288 -5.358623 0.311651 -75.556204 -18.725621 24.204834 -2.431385 -29.825463 -0.011268 5.441496 -1.337765 -0.071629 -0.096663 0.156757 0.000000 0.000000 0.000000 0.000000 0.000000 0.000000 0.000000 17.679696 -8.601832 -0.547070 61.344789 -10.504509 -13.924530 3.885413 15.085536 0.007420 2.767573 4.679456 0.109448 0.089877 0.000128 -0.000000 0.000000 0.000000 0.000000 0.000000 0.000000 0.000000 
23.412626 16.251631 3.436397 172.697067 -84.563677 -140.068433 13.743650 -2.457924 2.047542 2.169446 -2.935760 -2.229442 -6.015486 -3.061255 1.983995 10.609093 -2.757515 2.975959 -4.132577 -0.363588 2.465769 0.000000 0.000000 0.000000 -10.543284 -5.663175 0.340050 -76.082101 -18.934459 23.499308 -2.360813 -28.773249 -0.012385 5.735242 -1.315991 -0.074381 -0.092303 0.157531 0.000000 0.000000 0.000000 0.000000 0.000000 0.000000 0.000000 18.182395 -7.997103 -0.510392 60.749902 -9.028892 -14.106450 3.896236 13.971359 0.006854 2.751797 4.440948 0.103232 0.089062 0.002208 -0.000000 0.000000 0.000000 0.000000 0.000000 0.000000 0.000000 
23.280974 16.266831 3.389570 -179.045589 -84.964379 -148.084123 14.542716 -2.453267 2.383753 2.327591 -2.914033 -2.159776 -6.118919 -3.046707 1.928460 11.097727 -1.969145 3.297124 -4.158570 -0.364864 2.542951 0.000000 0.000000 0.000000 -10.322128 -6.015363 0.375602 -76.620221 -19.235898 22.773072 -2.294202 -27.658818 -0.013587 6.048749 -1.267477 -0.075830 -0.088586 0.158341 0.000000 0.000000 0.000000 0.000000 0.000000 0.000000 0.000000 18.744486 -7.377459 -0.477445 60.165400 -7.375438 -14.468402 3.895720 12.742021 0.006295 2.648834 4.178539 0.093315 0.088563 0.004083 -0.000000 0.000000 0.000000 0.000000 0.000000 0.000000 0.000000 
23.156691 16.289739 3.340316 -171.232142 -85.470988 -155.735949 15.230825 -2.532712 2.741460 2.474804 -2.961682 -2.083143 -6.216030 -3.101098 1.879146 11.651648 -1.145182 3.651747 -4.179114 -0.365960 2.628205 0.000000 0.000000 0.000000 -9.975316 -6.425518 0.417878 -77.150517 -19.606270 22.071460 -2.235625 -26.526694 -0.014781 6.352079 -1.191922 -0.075475 -0.085649 0.159192 0.000000 0.000000 0.000000 0.000000 0.000000 0.000000 0.000000 19.354488 -6.762936 -0.449095 59.601529 -5.579597 -14.992710 3.878180 11.444962 0.005786 2.419799 3.906241 0.079400 0.088394 0.005563 -0.000000 0.000000 0.000000 0.000000 0.000000 0.000000 0.000000 
23.038977 16.319461 3.288431 -164.529807 -86.013248 -162.343964 15.713852 -2.669450 3.107964 2.585909 -3.054535 -2.003177 -6.300683 -3.199910 1.838082 12.250354 -0.308589 4.031179 -4.194007 -0.366881 2.719287 0.000000 0.000000 0.000000 -9.522784 -6.879417 0.461872 -77.650187 -20.027654 21.452229 -2.188463 -25.420877 -0.015857 6.611355 -1.087878 -0.072514 -0.083475 0.159929 0.000000 0.000000 0.000000 0.000000 0.000000 0.000000 0.000000 19.996717 -6.159101 -0.423935 59.068583 -3.679755 -15.643756 3.839297 10.141197 0.005371 2.031883 3.641500 0.061686 0.088552 0.006396 -0.000000 0.000000 0.000000 0.000000 0.000000 0.000000 0.000000 
22.926259 16.354988 3.233993 -159.295748 -86.520090 -167.529218 15.971758 -2.821383 3.478331 2.649671 -3.156293 -1.920968 -6.371385 -3.306844 1.804022 12.869001 0.533142 4.430428 -4.203003 -0.367609 2.815103 0.000000 0.000000 0.000000 -8.995045 -7.354363 0.503326 -78.097393 -20.484068 20.978095 -2.155218 -24.380876 -0.016705 6.791046 -0.952566 -0.066347 -0.081894 0.160430 0.000000 0.000000 0.000000 0.000000 0.000000 0.000000 0.000000 20.646975 -5.549018 -0.399477 58.581883 -1.736124 -16.399044 3.777578 8.908443 0.005073 1.471642 3.401957 0.040977 0.088992 0.006321 -0.000000 0.000000 0.000000 0.000000 0.000000 0.000000 0.000000 
22.817065 16.395405 3.177392 -155.605655 -86.959898 -171.194202 16.043286 -2.955490 3.842542 2.670421 -3.240505 -1.837454 -6.428082 -3.395576 1.777368 13.478125 1.348012 4.839488 -4.206776 -0.368148 2.913318 0.000000 0.000000 0.000000 -8.425942 -7.840769 0.537942 -78.478026 -20.955574 20.687679 -2.136954 -23.445768 -0.017226 6.856657 -0.783737 -0.056774 -0.080603 0.160644 0.000000 0.000000 0.000000 0.000000 0.000000 0.000000 0.000000 21.277226 -4.947982 -0.373774 58.149324 0.226382 -17.177193 3.693964 7.805189 0.004910 0.730963 3.213845 0.017973 0.089700 0.005173 -0.000000 0.000000 0.000000 0.000000 0.000000 0.000000 0.000000 
22.710177 16.439804 3.119157 -153.548522 -87.315521 -173.227870 15.975978 -3.049171 4.186410 2.656598 -3.290243 -1.754772 -6.470985 -3.449398 1.758758 14.049347 2.109121 5.248482 -4.206009 -0.368515 3.011658 0.000000 0.000000 0.000000 -7.851971 -8.327201 0.563697 -78.781391 -21.429484 20.613372 -2.134800 -22.645097 -0.017345 6.780046 -0.581391 -0.044095 -0.079343 0.160571 0.000000 0.000000 0.000000 0.000000 0.000000 0.000000 0.000000 21.860362 -4.371274 -0.346238 57.780141 2.186472 -17.908263 3.591416 6.881030 0.004861 -0.175531 3.101982 -0.007225 0.090600 0.002870 -0.000000 0.000000 0.000000 0.000000 0.000000 0.000000 0.000000 
22.604304 16.487355 3.060029 -153.512025 -87.544255 -173.224659 15.800237 -3.079977 4.498649 2.612895 -3.287746 -1.676433 -6.499768 -3.450976 1.744018 14.557864 2.829839 5.656945 -4.198948 -0.368671 3.110526 0.000000 0.000000 0.000000 -7.312001 -8.794561 0.582122 -78.998503 -21.899441 20.782668 -2.149960 -21.996852 -0.017000 6.540527 -0.346328 -0.028908 -0.077899 0.160212 0.000000 0.000000 0.000000 0.000000 0.000000 0.000000 0.000000 22.362668 -3.789971 -0.316254 57.494199 4.080121 -18.606468 3.474395 6.192457 0.004878 -1.198519 3.087071 -0.034818 0.091513 -0.000685 -0.000000 0.000000 0.000000 0.000000 0.000000 0.000000 0.000000 
22.498773 16.537332 3.000672 -157.748004 -87.428073 -168.903842 15.432945 -2.986681 4.796459 2.511838 -3.177398 -1.598292 -6.513064 -3.345336 1.733932 14.973698 3.487364 6.054981 -4.188546 -0.368710 3.207037 0.000000 0.000000 0.000000 -6.826116 -9.206938 0.584352 -79.125067 -22.358126 21.185999 -2.181439 -21.522944 -0.016130 6.131055 -0.087010 -0.012919 -0.076011 0.159208 0.000000 0.000000 0.000000 0.000000 0.000000 0.000000 0.000000 22.767797 -3.201147 -0.278615 57.299557 5.918158 -19.208524 3.346378 5.747893 0.004899 -2.295262 3.189515 -0.066605 0.092275 -0.005593 -0.000000 0.000000 0.000000 0.000000 0.000000 0.000000 0.000000 
22.392853 16.589139 2.941712 174.515895 -85.948713 -141.044888 13.456203 -2.691026 5.098780 2.025958 -2.903597 -1.532064 -6.435526 -3.079067 1.741543 15.271330 4.083522 6.428082 -4.174248 -0.369158 3.294292 0.000000 0.000000 0.000000 -6.368540 -9.502750 0.553699 -79.136474 -22.803315 21.810634 -2.253924 -21.257304 -0.014598 5.555242 0.185486 0.001780 -0.075462 0.156084 0.000000 0.000000 0.000000 0.000000 0.000000 0.000000 0.000000 23.097858 -2.575186 -0.226015 57.243461 7.692599 -19.739926 3.184854 5.541629 0.004792 -3.403300 3.434892 -0.105088 0.090945 -0.011474 -0.000000 0.000000 0.000000 0.000000 0.000000 0.000000 0.000000 
22.286162 16.642171 2.883587 72.322860 -87.888176 -39.102602 14.346026 -3.915086 4.490816 2.432360 -4.072385 -1.677161 -6.358255 -4.242167 1.767333 15.684852 4.537252 6.756048 -4.099247 -0.368369 3.383954 0.000000 0.000000 0.000000 -6.172525 -10.560266 0.750406 -79.173894 -23.280224 22.623121 -2.354354 -20.980614 -0.013558 4.834403 0.467323 0.013415 -0.076433 0.163306 0.000000 0.000000 0.000000 0.000000 0.000000 0.000000 0.000000 23.229447 -2.689451 -0.348787 57.149756 9.237781 -20.080652 3.070573 5.665835 0.005068 -4.475905 3.809972 -0.152482 0.091964 -0.013873 -0.000000 0.000000 0.000000 0.000000 0.000000 0.000000 0.000000 
